<svg width="800" height="600" xmlns="http://www.w3.org/2000/svg">
 <g id="Layer_1">
  <title>Layer 1</title>
  <path id="svg_1" d="m448.73279,429.34539c0,0 -37.25306,-2.48449 -56.98221,-11.98257c-19.72916,-9.4982 -28.93603,-21.60836 -28.93603,-21.60836c0,0 10.35373,10.44557 24.8832,18.36001c8.85819,4.82514 19.26913,8.70963 29.8323,8.70963c0,0 -16.30864,-8.3107 -28.5417,-2.37475c0,0 8.81254,-5.4614 24.06973,-1.30593c15.25809,4.15535 22.88571,1.7806 22.88571,1.7806c0,0 -25.77844,-0.11867 -36.95889,-6.76744c-11.18057,-6.64877 -13.9428,-10.44731 -13.9428,-10.44731c0,0 11.5749,10.80412 20.51884,12.11017c8.94394,1.30604 24.33266,-0.23815 24.33266,-0.23815c0,0 -15.91444,0.35682 -20.91317,-1.66205c-4.99783,-2.01782 -24.72699,-6.05462 -28.27787,2.37475c0,0 3.94521,-8.90486 21.96463,-6.29277c18.01941,2.61209 19.73019,1.78153 19.73019,1.78153c0,0 -31.96221,-11.16106 -49.8501,-4.86817c-17.88801,6.29277 -16.70413,11.6355 -16.70413,11.6355c0,0 1.18401,-18.5216 44.8515,-15.19762c0,0 -20.38641,-2.73076 -27.88457,-8.19204c-7.4961,-5.4614 -8.02286,-9.02271 -8.02286,-9.02271c0,0 8.54871,11.75335 19.0719,11.87202c10.52229,0.11948 13.54744,-0.71189 13.54744,-0.71189c0,0 -20.51871,-4.27402 -30.25234,-3.32491c-9.73273,0.95016 -25.51564,4.0368 -33.80246,-9.49808c0,0 7.76006,12.94166 28.93706,8.4303c21.17597,-4.51217 34.45959,0.47456 34.45959,0.47456c0,0 -32.09271,-5.58006 -38.66966,-11.16001c-6.57604,-5.58006 -7.3647,-15.19774 -7.3647,-15.19774c0,0 2.76223,16.14685 16.30864,17.69116c13.54847,1.54326 34.06629,1.18645 39.45934,6.76732c0,0 -13.54744,-9.02352 -27.62164,-7.83615c-14.07317,1.18738 -35.7759,17.57156 -46.82404,13.29754c-11.04801,-4.27402 -16.04674,-0.7127 -16.04674,-0.7127c0,0 4.6044,-4.15535 12.49483,-2.2562c7.89249,1.9002 9.60223,4.7495 23.14967,-3.67987c13.54744,-8.42937 36.56469,-18.87749 51.16461,-9.8549c0,0 -68.2182,-17.05571 -75.5829,-51.72335c0,0 6.48553,23.11462 39.80687,33.40289c33.32237,10.28827 35.25017,9.4982 35.25017,9.4982c0,0 -51.38267,-4.90854 -75.40946,-46.70044c0,0 20.8683,32.45274 53.31343,36.72676c0,0 -27.35871,-8.54792 -48.57956,-34.66753c-21.21789,-26.12053 -22.09809,-34.82842 -22.09809,-34.82842c0,0 25.7823,41.79178 74.5371,49.2333c0,0 -38.18957,-9.85664 -65.54739,-41.31897c-27.35769,-31.46233 -18.80807,-37.63643 -18.80807,-37.63643c0,0 -5.91879,-11.2788 -1.44784,-13.77222c0,0 -8.81254,-9.02352 -6.31311,-16.38419c0,0 6.31311,27.9002 38.53826,46.18458c32.22501,18.28345 34.98724,20.53954 34.98724,20.53954c0,0 -33.40903,-20.65821 -43.93131,-30.63177c-10.52229,-9.97275 -22.35999,-17.69023 -29.19986,-39.06033c0,0 6.57707,21.13276 27.35871,35.61768c20.78074,14.48492 24.85929,14.24677 24.85929,14.24677c0,0 -42.6159,-19.70817 -52.74373,-52.35787c0,0 5.91879,24.10167 52.87526,47.13462c0,0 -47.08787,-25.05171 -52.87526,-51.76546c0,0 -1.05159,-3.91802 0.92096,-5.81728c0,0 -2.3679,-5.10551 -1.57821,-11.51694c0.78866,-6.41062 1.70974,-13.29662 1.70974,-13.29662c0,0 -2.10407,27.06964 27.09489,47.96518c0,0 -34.46061,-37.28228 -22.18281,-67.99142c0,0 -2.63276,16.93867 5.61021,24.69489c0,0 -7.01614,-13.61225 -3.68241,-29.60181c0,0 -0.87814,16.93878 7.89146,32.29382c8.76973,15.35504 36.82851,45.11576 36.82851,45.11576c0,0 -32.96893,-34.82749 -38.23059,-54.45654c-5.26063,-19.62905 -2.28124,-32.45111 -2.28124,-32.45111c0,0 -2.97939,18.36175 9.82221,36.72595c12.8016,18.36349 17.18691,20.42099 17.18691,20.42099c0,0 -35.2521,-33.08656 -21.92464,-69.81158c0,0 -0.87531,37.2005 13.67987,53.18924c14.55801,15.98944 18.93947,16.46411 18.93947,16.46411c0,0 -29.98851,-21.37103 -28.93693,-51.28998c1.05339,-29.91907 6.66746,-31.50189 6.66746,-31.50189c0,0 -12.45394,25.32605 7.53814,49.70623c19.99299,24.38018 15.96009,19.78809 15.96009,19.78809c0,0 -28.40927,-33.24293 -22.79713,-59.20524c5.61214,-25.96219 16.30864,-25.64493 16.30864,-25.64493c0,0 -11.74809,6.96429 -11.22236,22.95292c0.52586,15.98874 17.36216,47.01596 17.36216,47.01596c0,0 -18.76616,-42.58197 -13.67974,-55.72222c5.08449,-13.13932 15.78394,-17.09608 15.78394,-17.09608c0,0 -20.87229,10.76468 -8.77166,39.57618c0,0 -7.53994,-27.38435 12.62636,-40.20722c0,0 -14.37891,12.34832 -8.41719,35.30135c0,0 -1.75359,-28.17965 17.36113,-37.83514c0,0 -12.27291,8.708 -12.44919,26.27945c0,0 2.63083,-17.73141 17.18511,-27.70416c0,0 -11.04904,15.19681 -10.34614,37.04239c0,0 8.24297,-21.52658 12.2778,-37.35791c0,0 0.69917,8.54885 -2.28124,19.15357c-2.98041,10.60634 -4.38339,11.55557 -4.38339,11.55557c0,0 10.6965,-14.24677 11.22326,-28.17709c0,0 0.52586,13.6148 -4.0329,25.01308c0,0 8.68307,-6.30228 9.77657,-20.26694c0.0171,-0.2081 0.03047,-0.41795 0.04371,-0.62942c0,0 2.45366,20.41913 -6.49029,37.67517c-8.94394,17.25685 -13.15311,18.83886 -13.15311,18.83886c0,0 19.81967,-16.93959 22.80009,-40.36719c0,0 0.35049,13.13758 -4.91014,24.53504c-5.26076,11.39816 -10.8738,20.10616 -10.8738,20.10616c0,0 26.48044,-21.68991 22.09706,-60.62983c0,0 5.08449,21.68562 0.52586,38.14973c-4.55876,16.46411 -27.00926,41.7919 -27.00926,41.7919c0,0 34.90161,-27.86239 36.47893,-72.02811c0,0 4.20917,26.1196 -11.8377,49.86445c0,0 23.6754,-24.21952 23.14967,-47.25248c0,0 5.26166,11.63468 0.78866,27.54431c-4.47107,15.90951 -25.77844,53.18924 -47.87653,62.21277c0,0 59.97716,-29.20717 56.03181,-79.30885c0,0 6.57604,22.79481 -1.57821,44.87854c-8.15439,22.0828 -39.19641,55.80122 -39.19641,55.80122c0,0 44.45704,-37.04239 51.03411,-77.41039c0,0 2.10407,-12.34658 -0.52676,-19.70817c0,0 10.78611,4.27402 11.57477,22.5584c0.78866,18.28345 -9.7326,42.97916 -17.09833,60.31257c-7.36573,17.33423 -23.14864,40.36719 -23.14864,40.36719c0,0 51.29601,-70.76081 43.92939,-105.42926c0,0 13.15401,14.95948 11.57477,34.43123c-1.57731,19.47071 -12.62636,73.61012 -43.40366,98.06767c0,0 33.1452,-23.74485 42.35207,-66.96134c0,0 4.7349,-23.03296 3.94534,-35.61861c0,0 6.57604,26.59509 4.20904,46.5414c-2.367,19.94631 -27.09489,64.58752 -27.09489,64.58752c0,0 27.09489,-37.28054 28.93603,-60.55084c0,0 2.89376,14.00944 0.78969,26.83242c-2.10407,12.82206 -14.2047,36.80506 -24.46509,50.81449c0,0 21.57133,-28.01887 26.0433,-40.36719c4.4721,-12.3475 3.68241,-19.47083 3.68241,-19.47083c0,0 5.26166,38.46792 -3.15656,56.51404c-8.41821,18.04612 -34.98634,44.87854 -36.82749,57.46326c0,0 12.36343,-29.20625 39.19539,-33.71841c26.83196,-4.51136 42.08914,2.37475 42.08914,2.37475c0,0 -40.77373,-11.87283 -62.60799,10.44812c0,0 -11.04801,12.11017 -11.31184,23.03296c0,0 28.4112,-18.04612 32.88227,-42.74194c4.47287,-24.69489 25.25464,-28.49435 25.25464,-28.49435c0,0 -23.14967,7.83615 -22.88674,29.20717c0.26293,21.37091 -26.30623,46.54047 -32.61934,45.82858c0,0 21.57133,-5.4614 29.19986,-21.84558c0,0 -4.99873,16.62141 -15.78291,26.23827c-10.78611,9.61675 -7.23523,13.7721 -7.23523,13.7721c0,0 3.68331,-10.32864 14.46853,-18.99627c10.78611,-8.66671 24.99069,-23.62618 25.12221,-33.71841c0.1314,-10.0913 11.8377,-20.18353 11.8377,-20.18353c0,0 -9.20687,10.56679 -9.60223,18.1656c-0.39433,7.598 0.92109,19.47083 -14.4675,29.44439c-15.38961,9.97275 -21.83426,27.90032 -21.57133,35.73635c0,0 10.74227,-27.98013 42.31016,-33.51982c0,0 -30.16581,5.38147 -40.86231,36.09328c0,0 19.99106,-30.71007 46.64867,-38.78355c0,0 -28.41017,10.92279 -42.08914,37.6761c0,0 8.06683,-18.99883 33.31954,-19.7889c0,0 -21.04457,2.53205 -29.6361,20.42087c0,0 3.85753,-7.59626 18.2385,-10.28827c14.38084,-2.69201 26.47954,-12.03198 23.49913,-20.89809c0,0 3.68241,12.34576 -15.08091,20.57909c-18.76526,8.23333 -26.64913,27.94811 -26.64913,27.94811c0,0 15.28059,13.05963 27.63514,24.06489c-0.97534,6.16296 -4.34353,7.85877 -7.47771,8.51092c-1.12063,0.23316 -27.28247,-26.32399 -28.77313,-26.85307z" stroke-width="0" stroke="#000" fill="#56aaff"/>
 </g>
</svg>